<?xml version="1.0" encoding="UTF-8"?>
<svg width="1669px" height="226px" viewBox="0 0 1669 226" version="1.1" xmlns="http://www.w3.org/2000/svg" xmlns:xlink="http://www.w3.org/1999/xlink">
    <title>Group 5</title>
    <g id="Page-1" stroke="none" stroke-width="1" fill="none" fill-rule="evenodd">
        <g id="Group-5">
            <rect id="Rectangle" fill="#0F172A" x="0" y="0" width="1669" height="226"></rect>
            <path d="M105.897613,53.1020941 C133.715796,45.5148339 162.550726,58.9951817 174.081881,85.0131756 C179.499437,97.0251765 180.477288,110.535554 176.836235,123.058065 C173.181819,135.626462 165.079586,146.465851 154.021607,153.579839 C152.39949,154.622961 150.25003,154.188607 149.153348,152.597017 C148.056665,151.005427 148.406239,148.825489 149.944362,147.662006 C168.026265,133.986103 173.45933,109.993813 162.863791,90.6136509 C162.859257,90.6054827 162.854962,90.5973146 162.850428,90.5891464 C152.752643,71.7766714 131.060946,63.2385411 111.268638,70.2845406 C92.4689767,77.1421919 81.6116745,95.7694419 85.4522116,114.581436 C85.4548364,114.594409 85.4572226,114.607382 85.4598474,114.620355 C88.0285424,127.947515 97.452569,138.562119 109.419018,142.980799 C109.319881,142.756243 109.287082,142.505606 109.330694,142.25704 C109.413204,141.782567 109.471485,141.354963 109.506847,140.949831 C109.560544,140.267977 109.560544,139.672156 109.504882,139.142467 C109.443982,138.53509 109.312359,137.960458 109.113287,137.431411 C108.937135,136.966568 108.700737,136.502368 108.371352,135.974605 C108.062921,135.478302 107.725678,134.992914 107.339321,134.490191 C106.96879,134.00491 106.545508,133.494661 106.180889,133.064221 L105.970048,132.816373 L105.949748,132.795185 C105.905873,132.750242 105.858725,132.695668 105.803718,132.629537 C105.761372,132.579029 105.718443,132.528522 105.667172,132.470214 L105.583037,132.375928 L105.466475,132.246235 C105.36301,132.124246 105.125957,131.855228 105.016599,131.722324 C104.644649,131.292152 104.258292,130.765031 103.854255,130.135183 C103.087436,128.918503 102.53344,127.593958 102.247274,126.29638 C101.946047,124.959638 101.919198,123.515031 102.171312,122.233504 C102.44962,120.767709 103.05011,119.66724 103.50457,119.004005 C104.033682,118.227127 104.672807,117.55683 105.4023,117.013015 C105.85807,116.675298 106.33414,116.390229 106.818722,116.163587 C107.239785,115.967762 107.734846,116.005001 108.119892,116.262462 C108.504939,116.519923 108.721037,116.959083 108.68764,117.414295 C108.662101,117.759075 108.630669,118.281701 108.64704,118.834504 C108.665375,119.500307 108.732824,120.103832 108.848076,120.628385 C108.971841,121.212006 109.164365,121.747474 109.423027,122.230294 C109.705918,122.764477 110.026136,123.201711 110.302479,123.560616 C110.629245,123.978589 111.00054,124.410687 111.432081,124.874887 C111.447797,124.89158 111.462858,124.908916 111.477265,124.926251 L111.56665,125.026571 L111.56665,125.026571 L111.663894,125.125928 L111.777182,125.241496 C111.792898,125.257548 111.80796,125.274883 111.822366,125.291576 L111.953171,125.434271 L111.953171,125.434271 L112.09478,125.576003 L112.17729,125.657543 C112.217454,125.69735 112.256162,125.737442 112.300788,125.78543 L112.373088,125.864282 L112.67497,126.187874 C112.802664,126.317568 113.063945,126.61612 113.280043,126.876149 C114.13854,127.902783 114.852318,129.019946 115.397801,130.189757 C115.996326,131.469999 116.381372,132.840771 116.512341,134.153758 C116.647238,135.500774 116.512341,136.916488 116.130568,138.138305 C115.785467,139.250331 115.221648,140.302005 114.500013,141.176474 C113.900833,141.901987 113.209975,142.510649 112.445775,142.982553 C112.063945,143.222726 111.661563,143.433449 111.253757,143.605453 C115.087633,144.7909 119.150859,145.350536 123.309719,145.174321 C131.222012,144.840628 137.893022,151.012874 138.226131,158.978272 C138.558763,166.924451 132.408176,173.661502 124.515688,173.996396 C124.466055,173.998559 124.416423,174 124.366791,174 L124.366791,174 L123.460047,174 L123.460047,174 L123.342886,173.998078 C92.222247,172.96865 66.0044667,149.188972 62.4686432,118.174226 C58.7304727,88.0411608 77.7358222,60.9560207 105.897613,53.1020941 Z M123.570653,82.3164305 C123.896757,82.5951445 124.06079,83.0141765 124.009162,83.4351308 C123.942503,83.9752592 123.874538,84.5865078 123.814414,85.2772059 C123.731418,86.3145345 123.651035,87.5581756 123.690246,88.8524336 C123.730111,90.3100757 123.878459,91.6299626 124.132676,92.7800583 C124.400618,94.0499689 124.824095,95.224412 125.39004,96.2796808 C125.878869,97.2061645 126.467033,98.0948456 127.299612,99.1693361 C128.010636,100.081724 128.830798,101.03704 129.805843,102.087824 C129.824141,102.108968 129.84244,102.129471 129.860085,102.150615 C129.997323,102.319765 130.151553,102.470335 130.287484,102.605527 C130.392046,102.709965 130.485499,102.80351 130.572416,102.897056 C130.588101,102.913714 130.603132,102.930373 130.616855,102.947673 C130.736231,103.09034 130.871872,103.233007 131.010998,103.373397 L131.220704,103.581987 L131.412184,103.772282 C131.509721,103.865987 131.607993,103.968703 131.716926,104.088268 L131.82978,104.213739 L132.469571,104.899311 C132.747315,105.180588 133.285159,105.790555 133.814506,106.427433 C135.698591,108.682133 137.258532,111.121361 138.447276,113.671433 C139.757574,116.471388 140.599956,119.468684 140.883581,122.338477 C141.185505,125.327444 140.897305,128.340118 140.05231,131.045246 C139.298807,133.476785 138.065623,135.775054 136.48673,137.689531 C135.184274,139.26891 133.677268,140.596486 132.006883,141.631892 C130.719457,142.441124 129.371909,143.074798 128.006062,143.510489 C127.421165,143.705268 126.830388,143.859041 126.216737,143.976934 C126.13374,143.992311 126.05009,144 125.967094,144 C125.616156,144 125.277635,143.863526 125.028646,143.611723 C124.72084,143.301613 124.594712,142.859515 124.691432,142.43728 C124.805797,141.938798 124.931272,141.361508 125.059361,140.736163 C125.230582,139.821853 125.448203,138.573727 125.568449,137.204505 C125.688043,135.694964 125.687389,134.393017 125.565182,133.232029 C125.432518,131.912783 125.146279,130.660813 124.711037,129.505591 C124.325463,128.490047 123.808533,127.473863 123.085091,126.311593 C122.406089,125.223648 121.666963,124.161331 120.826542,123.065696 C120.120185,122.141135 119.27521,121.104977 118.111621,119.734581 L117.837363,119.412301 L117.817104,119.391798 C117.698164,119.267498 117.591641,119.142557 117.462245,118.991987 C117.357356,118.868969 117.253937,118.747752 117.127727,118.604821 L116.993021,118.453781 L116.718545,118.145594 C116.712383,118.137905 116.206402,117.558745 115.904752,117.201771 L115.774215,117.045474 C114.936408,116.077344 114.090106,114.924045 113.207207,113.54457 C111.536822,110.895186 110.325858,108.001686 109.700444,105.168414 C109.0417,102.241597 108.980923,99.0873237 109.53053,96.2918545 C110.01217,93.7513925 111.020545,91.304476 112.445208,89.2240523 C113.605851,87.5216544 115.003721,86.0550422 116.598952,84.8677847 C117.84978,83.9393788 119.156811,83.2006266 120.485407,82.6694682 C121.11801,82.4131795 121.757148,82.2017413 122.380602,82.0422016 C122.798198,81.9339196 123.243895,82.0370758 123.570653,82.3164305 Z" id="Combined-Shape" fill="#6366F1" fill-rule="nonzero"></path>
            <path d="M1302.75862,127 C1305.28736,127 1307.70115,126.365169 1310,125.095506 L1310,125.095506 L1310,120.359551 C1309.34483,120.898876 1308.72126,121.359551 1308.12931,121.741573 C1307.53736,122.123596 1306.96552,122.426966 1306.41379,122.651685 C1305.42529,123.101124 1304.22414,123.325843 1302.81034,123.325843 C1300.07471,123.325843 1297.76437,122.38764 1295.87931,120.511236 C1293.99425,118.634831 1293.05172,116.331461 1293.05172,113.601124 C1293.05172,110.837079 1293.99425,108.5 1295.87931,106.589888 C1297.75287,104.668539 1300.05747,103.707865 1302.7931,103.707865 C1305.27586,103.707865 1307.67816,104.657303 1310,106.55618 L1310,106.55618 L1310,101.904494 C1307.77011,100.634831 1305.45977,100 1303.06897,100 C1298.68966,100 1295.12069,101.589888 1292.36207,104.769663 C1290.12069,107.365169 1289,110.320225 1289,113.634831 C1289,117.331461 1290.33908,120.488764 1293.01724,123.106742 C1295.7069,125.702247 1298.95402,127 1302.75862,127 Z M1325.36617,127 C1329.13569,127 1332.35316,125.690194 1335.01859,123.070581 C1337.67286,120.462211 1339,117.286071 1339,113.542161 C1339,109.820737 1337.67844,106.633354 1335.03532,103.980012 C1332.40335,101.326671 1329.24721,100 1325.56691,100 C1321.84201,100 1318.65242,101.315428 1315.99814,103.946284 C1313.33271,106.577139 1312,109.725172 1312,113.390381 C1312,117.561524 1313.46097,120.934416 1316.3829,123.509057 C1319.03717,125.836352 1322.0316,127 1325.36617,127 Z M1325.91259,124 C1323.30186,124 1321,123.054983 1319.00699,121.164948 C1317.00233,119.274914 1316,116.863688 1316,113.931271 C1316,111.136312 1316.96737,108.788087 1318.9021,106.886598 C1320.83683,104.962199 1323.20862,104 1326.01748,104 C1328.838,104 1331.20396,104.962199 1333.11538,106.886598 C1335.03846,108.799542 1336,111.170676 1336,114 C1336,116.79496 1335.02681,119.166094 1333.08042,121.113402 C1331.13403,123.037801 1328.74476,124 1325.91259,124 Z M1366,128 L1366,100.746988 L1362.22811,100.746988 L1362.22811,118.599541 L1344,99 L1344,126.43603 L1347.77189,126.43603 L1347.77189,108.450373 L1366,128 Z M1380.36569,128 L1392,100 L1387.71898,100 L1380.44964,118.048193 L1373.28102,100 L1369,100 L1380.36569,128 Z M1408,127 L1408,123.312176 L1397.10211,123.312176 L1397.10211,114.623057 L1407.6831,114.623057 L1407.6831,110.935233 L1397.10211,110.935233 L1397.10211,104.687824 L1408,104.687824 L1408,101 L1393,101 L1393,127 L1408,127 Z M1416.95704,127 L1416.95704,116.357513 L1417.67033,116.357513 L1425.15984,127 L1430,127 L1421.88212,115.919689 C1423.62571,115.549223 1425.02964,114.701641 1426.09391,113.376943 C1427.15818,112.052245 1427.69031,110.469344 1427.69031,108.628238 C1427.69031,106.270725 1426.84116,104.373489 1425.14286,102.936528 C1423.60306,101.645509 1421.1009,101 1417.63636,101 L1417.63636,101 L1413,101 L1413,127 L1416.95704,127 Z M1419.27901,112 L1418,112 L1418,104 L1419.43457,104 C1423.14486,104 1425,105.289796 1425,107.869388 C1425,110.623129 1423.093,112 1419.27901,112 L1419.27901,112 Z M1440.96768,127 C1443.25185,127 1445.16431,126.213483 1446.70505,124.640449 C1448.23502,123.078652 1449,121.101124 1449,118.707865 C1449,116.921348 1448.53131,115.412921 1447.59394,114.182584 C1446.65657,112.952247 1445.17508,111.910112 1443.14949,111.05618 L1443.14949,111.05618 L1440.66061,109.994382 C1438.85051,109.219101 1437.94545,108.196629 1437.94545,106.926966 C1437.94545,106.005618 1438.29024,105.241573 1438.9798,104.634831 C1439.66936,104.016854 1440.5367,103.707865 1441.58182,103.707865 C1442.433,103.707865 1443.12795,103.88764 1443.66667,104.247191 C1444.18384,104.561798 1444.72795,105.235955 1445.29899,106.269663 L1445.29899,106.269663 L1448.35354,104.382022 C1446.73737,101.460674 1444.49091,100 1441.61414,100 C1439.48081,100 1437.69764,100.662921 1436.26465,101.988764 C1434.83165,103.303371 1434.11515,104.938202 1434.11515,106.893258 C1434.11515,109.792135 1435.8229,111.994382 1439.23838,113.5 L1439.23838,113.5 L1441.64646,114.544944 C1442.27138,114.825843 1442.8101,115.120787 1443.26263,115.429775 C1443.71515,115.738764 1444.08418,116.070225 1444.3697,116.424157 C1444.65522,116.77809 1444.86532,117.16573 1445,117.587079 C1445.13468,118.008427 1445.20202,118.47191 1445.20202,118.977528 C1445.20202,120.235955 1444.81414,121.275281 1444.03838,122.095506 C1443.26263,122.91573 1442.28754,123.325843 1441.11313,123.325843 C1439.62626,123.325843 1438.49495,122.764045 1437.71919,121.640449 C1437.28822,121.05618 1436.98653,120 1436.81414,118.47191 L1436.81414,118.47191 L1433,119.348315 C1433.34478,121.775281 1434.21212,123.657303 1435.60202,124.994382 C1437.01347,126.331461 1438.80202,127 1440.96768,127 Z M1456.01332,126 L1458.76349,119.829982 L1469.33245,119.829982 L1471.92272,126 L1476,126 L1464.21586,99 L1452,126 L1456.01332,126 Z M1467,115 L1460,115 L1463.58209,107 L1467,115 Z M1485.98726,127 L1485.98726,104.687824 L1492,104.687824 L1492,101 L1476,101 L1476,104.687824 L1482.02972,104.687824 L1482.02972,127 L1485.98726,127 Z M1498,127 L1498,101 L1495,101 L1495,127 L1498,127 Z M1515.36617,127 C1519.13569,127 1522.35316,125.690194 1525.01859,123.070581 C1527.67286,120.462211 1529,117.286071 1529,113.542161 C1529,109.820737 1527.67844,106.633354 1525.03532,103.980012 C1522.40335,101.326671 1519.24721,100 1515.56691,100 C1511.84201,100 1508.65242,101.315428 1505.99814,103.946284 C1503.33271,106.577139 1502,109.725172 1502,113.390381 C1502,117.561524 1503.46097,120.934416 1506.3829,123.509057 C1509.03717,125.836352 1512.0316,127 1515.36617,127 Z M1515.91259,124 C1513.30186,124 1511,123.054983 1509.00699,121.164948 C1507.00233,119.274914 1506,116.863688 1506,113.931271 C1506,111.136312 1506.96737,108.788087 1508.9021,106.886598 C1510.83683,104.962199 1513.20862,104 1516.01748,104 C1518.838,104 1521.20396,104.962199 1523.11538,106.886598 C1525.03846,108.799542 1526,111.170676 1526,114 C1526,116.79496 1525.02681,119.166094 1523.08042,121.113402 C1521.13403,123.037801 1518.74476,124 1515.91259,124 Z M1557,128 L1557,100.746988 L1553.22811,100.746988 L1553.22811,118.599541 L1535,99 L1535,126.43603 L1538.77189,126.43603 L1538.77189,108.450373 L1557,128 Z M1569.96768,127 C1572.25185,127 1574.16431,126.213483 1575.70505,124.640449 C1577.23502,123.078652 1578,121.101124 1578,118.707865 C1578,116.921348 1577.53131,115.412921 1576.59394,114.182584 C1575.65657,112.952247 1574.17508,111.910112 1572.14949,111.05618 L1572.14949,111.05618 L1569.66061,109.994382 C1567.85051,109.219101 1566.94545,108.196629 1566.94545,106.926966 C1566.94545,106.005618 1567.29024,105.241573 1567.9798,104.634831 C1568.66936,104.016854 1569.5367,103.707865 1570.58182,103.707865 C1571.433,103.707865 1572.12795,103.88764 1572.66667,104.247191 C1573.18384,104.561798 1573.72795,105.235955 1574.29899,106.269663 L1574.29899,106.269663 L1577.35354,104.382022 C1575.73737,101.460674 1573.49091,100 1570.61414,100 C1568.48081,100 1566.69764,100.662921 1565.26465,101.988764 C1563.83165,103.303371 1563.11515,104.938202 1563.11515,106.893258 C1563.11515,109.792135 1564.8229,111.994382 1568.23838,113.5 L1568.23838,113.5 L1570.64646,114.544944 C1571.27138,114.825843 1571.8101,115.120787 1572.26263,115.429775 C1572.71515,115.738764 1573.08418,116.070225 1573.3697,116.424157 C1573.65522,116.77809 1573.86532,117.16573 1574,117.587079 C1574.13468,118.008427 1574.20202,118.47191 1574.20202,118.977528 C1574.20202,120.235955 1573.81414,121.275281 1573.03838,122.095506 C1572.26263,122.91573 1571.28754,123.325843 1570.11313,123.325843 C1568.62626,123.325843 1567.49495,122.764045 1566.71919,121.640449 C1566.28822,121.05618 1565.98653,120 1565.81414,118.47191 L1565.81414,118.47191 L1562,119.348315 C1562.34478,121.775281 1563.21212,123.657303 1564.60202,124.994382 C1566.01347,126.331461 1567.80202,127 1569.96768,127 Z" id="CONVERSATIONS" fill="#6366F1" fill-rule="nonzero"></path>
            <path d="M219,139 L219,84 L205,84 L205,139 L219,139 Z M257,141 C260.132489,141 263.118143,140.61139 265.956962,139.834171 C268.795781,139.056951 271.40211,137.927554 273.775949,136.44598 C276.149789,134.964405 278.217722,133.118509 279.979747,130.908291 C281.741772,128.698074 283.136709,126.159966 284.164557,123.29397 C284.898734,121.253769 285.388186,119.043551 285.632911,116.663317 C285.877637,114.283082 286,111.635678 286,108.721106 L286,108.721106 L257.440506,108.721106 L257.440506,119.796482 L269.260759,119.796482 C269.016034,121.399497 268.551055,122.759631 267.865823,123.876884 C267.180591,124.994137 266.311814,125.904941 265.259494,126.609296 C264.207173,127.313652 263.020253,127.823702 261.698734,128.139447 C260.377215,128.455193 259.006751,128.613065 257.587342,128.613065 C255.18903,128.613065 253.084388,128.212312 251.273418,127.410804 C249.462447,126.609296 247.945148,125.479899 246.721519,124.022613 C245.49789,122.565327 244.580169,120.840871 243.968354,118.849246 C243.35654,116.857621 243.050633,114.69598 243.050633,112.364322 C243.050633,109.789782 243.405485,107.458124 244.11519,105.369347 C244.824895,103.28057 245.803797,101.495394 247.051899,100.013819 C248.3,98.5322446 249.805063,97.3907035 251.567089,96.589196 C253.329114,95.7876884 255.28692,95.3869347 257.440506,95.3869347 C260.034599,95.3869347 262.347257,96.0427136 264.378481,97.3542714 C266.409705,98.6658291 268.061603,100.827471 269.334177,103.839196 L269.334177,103.839196 L282.989873,98.2286432 C280.444726,93.0309883 276.994093,89.1934673 272.637975,86.7160804 C268.281857,84.2386935 263.216034,83 257.440506,83 C252.986498,83 248.948523,83.7043551 245.326582,85.1130653 C241.704641,86.5217755 238.608861,88.4891122 236.039241,91.0150754 C233.46962,93.5410385 231.487342,96.589196 230.092405,100.159548 C228.697468,103.729899 228,107.652429 228,111.927136 C228,116.250419 228.709705,120.197236 230.129114,123.767588 C231.548523,127.33794 233.530802,130.398241 236.075949,132.948492 C238.621097,135.498744 241.667932,137.478224 245.216456,138.886935 C248.764979,140.295645 252.692827,141 257,141 Z M309.316069,139 L309.316069,105.372679 L335.756972,139 L350,139 L350,84 L335.756972,84 L335.756972,117.627321 L309.316069,84 L295,84 L295,139 L309.316069,139 Z M376,139 L376,84 L362,84 L362,139 L376,139 Z M408.189189,139 L408.189189,96.1087533 L420,96.1087533 L420,84 L382,84 L382,96.1087533 L393.810811,96.1087533 L393.810811,139 L408.189189,139 Z M457,139 L457,126.891247 L440.16317,126.891247 L440.16317,117.408488 L456.060606,117.408488 L456.060606,105.299735 L440.16317,105.299735 L440.16317,96.1087533 L457,96.1087533 L457,84 L426,84 L426,139 L457,139 Z" id="IGNITE" fill="#E2E8F0" fill-rule="nonzero"></path>
        </g>
    </g>
</svg>